<?xml version="1.0" encoding="UTF-8"?>
<svg width="24px" height="24px" viewBox="0 0 24 24" version="1.1" xmlns="http://www.w3.org/2000/svg" xmlns:xlink="http://www.w3.org/1999/xlink">
    <!-- Generator: Sketch 60.1 (88133) - https://sketch.com -->
    <title>chat_24px</title>
    <desc>Created with Sketch.</desc>
    <defs>
        <path d="M20,2 L4,2 C2.9,2 2.01,2.9 2.01,4 L2.01,22 L6,18 L20,18 C21.1,18 22,17.1 22,16 L22,4 C22,2.9 21.1,2 20,2 Z M6,9 L18,9 L18,11 L6,11 L6,9 Z M14,14 L6,14 L6,12 L14,12 L14,14 Z M18,8 L6,8 L6,6 L18,6 L18,8 Z" id="path-1"></path>
    </defs>
    <g id="chat_24px" stroke="none" stroke-width="1" fill="none" fill-rule="evenodd">
        <g id="icon/content/filter_list_24px-copy">
            <mask id="mask-2" fill="white">
                <use xlink:href="#path-1"></use>
            </mask>
            <use id="icon/communication/chat_24px" fill="#62D0FF" fill-rule="evenodd" xlink:href="#path-1"></use>
        </g>
    </g>
</svg>